<?xml version="1.0" standalone="no"?><!DOCTYPE svg PUBLIC "-//W3C//DTD SVG 1.1//EN" "http://www.w3.org/Graphics/SVG/1.1/DTD/svg11.dtd"><svg t="1586538917728" class="icon" viewBox="0 0 1024 1024" version="1.1" xmlns="http://www.w3.org/2000/svg" p-id="807" xmlns:xlink="http://www.w3.org/1999/xlink" width="512" height="512"><defs><style type="text/css"></style></defs><path d="M508 926.2c-207.6 0-387.2-159.2-408.2-369.2-19.4-226 148-427.4 373.4-449.6 8.8-0.8 17.2-1.2 25.6-1.4 10.6-0.6 20 6.2 23.4 16.2 3.6 9.8 0.4 20.8-7.8 27.4-69.4 54.8-106.2 140-98.6 227.8 14 138.8 139 242.4 278 230.8 71.4-6 135.6-40.4 180.4-97 6.6-8.2 17.6-11.4 27.4-7.8 9.8 3.6 16.4 13 16 23.6-5.4 209.2-166.8 380.2-375.6 397.8-11.4 1-22.6 1.4-34 1.4zM432.6 163.4c-175.4 39.8-300 205.4-284.2 389.2C168 747.4 342.6 892.8 538 876.2c161-13.6 290.2-130.6 323-283.2-46.4 36.6-102.6 58.8-163 63.8-165.6 14-314-109.4-330.6-274.8-6.8-79.6 17-157.4 65.2-218.6z" p-id="808" fill="#ffffff"></path></svg>